REM MD5 5a012d2f8dc067ebd18ac4a549a07029
FILE "2Xtreme (USA).bin" BINARY
  TRACK 01 MODE2/2352
    INDEX 01 00:00:00
  TRACK 02 AUDIO
    INDEX 00 04:19:12
    INDEX 01 04:21:12
  TRACK 03 AUDIO
    INDEX 01 09:36:74
  TRACK 04 AUDIO
    INDEX 01 17:11:14
  TRACK 05 AUDIO
    INDEX 01 24:24:50
  TRACK 06 AUDIO
    INDEX 01 30:33:08
  TRACK 07 AUDIO
    INDEX 01 36:17:58
  TRACK 08 AUDIO
    INDEX 01 43:31:01
REM LEADOUT 45:22:66
